          <svg
            width="33"
            height="33"
            viewBox="0 0 33 33"
            fill="none"
            xmlns="http://www.w3.org/2000/svg"
            className="profile-icon"
          >
            <path
              d="M32.1386 16.5657C32.1438 19.6567 31.2244 22.6786 29.4988 25.243C28.0757 27.3655 26.1515 29.1047 23.8964 30.3068C21.6413 31.5089 19.1248 32.1368 16.5693 32.135C14.0139 32.1368 11.4973 31.5089 9.24224 30.3068C6.98715 29.1047 5.06298 27.3655 3.63987 25.243C2.28487 23.2232 1.42193 20.914 1.12024 18.5005C0.818547 16.0871 1.08649 13.6365 1.90258 11.3453C2.71868 9.05406 4.06023 6.9859 5.81969 5.30659C7.57914 3.62729 9.70757 2.38356 12.0343 1.67511C14.3611 0.966654 16.8215 0.813183 19.2183 1.227C21.615 1.64081 23.8815 2.6104 25.836 4.05804C27.7905 5.50568 29.3787 7.3911 30.4732 9.56315C31.5677 11.7352 32.1381 14.1335 32.1386 16.5657Z"
              stroke="black"
            />
            <path
              d="M19.1642 11.376C19.1642 12.0642 18.8908 12.7242 18.4042 13.2108C17.9176 13.6975 17.2576 13.9708 16.5694 13.9708V15.7008C17.1373 15.7008 17.6997 15.5889 18.2244 15.3716C18.7491 15.1542 19.2259 14.8357 19.6275 14.4341C20.029 14.0325 20.3476 13.5557 20.565 13.031C20.7823 12.5063 20.8942 11.9439 20.8942 11.376H19.1642ZM16.5694 13.9708C15.8811 13.9708 15.2211 13.6975 14.7345 13.2108C14.2479 12.7242 13.9745 12.0642 13.9745 11.376H12.2445C12.2445 11.9439 12.3564 12.5063 12.5737 13.031C12.7911 13.5557 13.1097 14.0325 13.5112 14.4341C14.3223 15.2451 15.4223 15.7008 16.5694 15.7008V13.9708ZM13.9745 11.376C13.9745 10.6878 14.2479 10.0277 14.7345 9.5411C15.2211 9.05446 15.8811 8.78107 16.5694 8.78107V7.05115C15.4223 7.05115 14.3223 7.5068 13.5112 8.31786C12.7002 9.12891 12.2445 10.2289 12.2445 11.376H13.9745ZM16.5694 8.78107C17.2576 8.78107 17.9176 9.05446 18.4042 9.5411C18.8908 10.0277 19.1642 10.6878 19.1642 11.376H20.8942C20.8942 10.2289 20.4385 9.12891 19.6275 8.31786C18.8164 7.5068 17.7164 7.05115 16.5694 7.05115V8.78107ZM4.74705 26.6962L3.91668 26.4505L3.78348 26.902L4.08967 27.2601L4.74705 26.6962ZM28.3917 26.6962L29.049 27.2601L29.3552 26.902L29.2203 26.4505L28.3917 26.6962ZM11.3796 22.6205H21.7591V20.8905H11.3796V22.6205ZM11.3796 20.8905C9.70317 20.8908 8.0716 21.4321 6.72738 22.4338C5.38315 23.4355 4.39629 24.8442 3.91668 26.4505L5.57568 26.9436C5.9491 25.6944 6.71556 24.599 7.76117 23.8201C8.80679 23.0413 10.0758 22.6206 11.3796 22.6205V20.8905ZM16.5694 31.2701C14.4472 31.2724 12.3498 30.8142 10.4219 29.9271C8.49406 29.0401 6.78159 27.7453 5.40269 26.1322L4.08967 27.2601C5.63113 29.0623 7.54509 30.5087 9.69959 31.4996C11.8541 32.4906 14.1979 33.0025 16.5694 33V31.2701ZM21.7591 22.6205C23.0631 22.6207 24.3323 23.0417 25.3779 23.8208C26.4236 24.6 27.1899 25.6958 27.563 26.9453L29.2203 26.4505C28.7407 24.8442 27.7555 23.4355 26.4113 22.4338C25.0671 21.4321 23.4355 20.8908 21.7591 20.8905V22.6205ZM27.736 26.1322C26.3571 27.7453 24.6446 29.0401 22.7168 29.9271C20.7889 30.8142 18.6915 31.2724 16.5694 31.2701V33C18.9408 33.0025 21.2846 32.4906 23.4391 31.4996C25.5936 30.5087 27.5076 29.0623 29.049 27.2601L27.736 26.1322Z"
              fill="black"
            />
          </svg>