<svg width="27" height="23" viewBox="0 0 27 23" fill="none" xmlns="http://www.w3.org/2000/svg">
<g id="hugeicons:table-round" clip-path="url(#clip0_726_196)">
<g id="Group">
<path id="Vector" d="M13.5 8.5199C19.5751 8.5199 24.5 7.09775 24.5 5.34344C24.5 3.58914 19.5751 2.16699 13.5 2.16699C7.42487 2.16699 2.5 3.58914 2.5 5.34344C2.5 7.09775 7.42487 8.5199 13.5 8.5199ZM13.5 8.5199V16.9904M13.5 16.9904C14.963 16.9904 15.7803 17.793 16.1609 18.4897C16.2493 18.6555 16.2725 18.8465 16.2262 19.0274C16.1799 19.2083 16.0672 19.3671 15.909 19.4744C15.1959 19.9316 14.3568 20.1728 13.5 20.1669C12.5892 20.1669 11.751 19.9075 11.091 19.4734C10.9328 19.366 10.8201 19.2073 10.7738 19.0263C10.7275 18.8454 10.7507 18.6545 10.8391 18.4887C11.2197 17.7951 12.037 16.9904 13.5 16.9904Z" stroke="#F5F5F5" stroke-width="3" stroke-linecap="round" stroke-linejoin="round"/>
</g>
</g>
<defs>
<clipPath id="clip0_726_196">
<rect width="26" height="22" fill="white" transform="translate(0.5 0.166992)"/>
</clipPath>
</defs>
</svg>
