<svg width="17" height="28" viewBox="0 0 17 28" fill="none" xmlns="http://www.w3.org/2000/svg">
<g id="mdi:bottle-wine-outline" clip-path="url(#clip0_726_853)">
<path id="Vector" d="M8.11142 -1.91699C7.62251 -1.91699 7.23836 -1.56499 7.23836 -1.11699V6.08301C7.11613 6.08301 6.97644 6.08301 6.85421 6.13101C5.17794 6.51501 4.11281 7.68301 3.32705 9.10701C2.52384 10.499 2 12.227 2 14.083C2.08731 18.883 2 23.731 2 28.483C2 29.363 2.78575 30.083 3.74612 30.083H14.2228C15.1832 30.083 15.969 29.363 15.969 28.483C16.0388 23.683 15.969 18.883 15.969 14.083C15.969 12.227 15.515 10.499 14.7118 9.09101C13.926 7.68301 12.8609 6.51501 11.1846 6.14701C11.0449 6.08301 10.8179 6.08301 10.7306 6.08301V-1.11699C10.7306 -1.56499 10.3465 -1.91699 9.85754 -1.91699M8.98448 9.04301C9.54324 9.04301 10.0845 9.12301 10.3465 9.28301C10.4687 9.33101 11.0798 9.69901 11.6037 10.579C12.0926 11.475 12.4767 12.755 12.4767 14.083V26.883H5.49224V14.083C5.49224 12.755 5.87639 11.475 6.3653 10.579C6.88914 9.69901 7.50028 9.33101 7.62251 9.28301C7.86696 9.12301 8.42572 9.04301 8.98448 9.04301Z" fill="#F5F5F5"/>
</g>
<defs>
<clipPath id="clip0_726_853">
<rect width="16" height="32" fill="white" transform="translate(0.5 -1.91699)"/>
</clipPath>
</defs>
</svg>
