<svg width="27" height="28" viewBox="0 0 27 28" fill="none" xmlns="http://www.w3.org/2000/svg">
<g id="Timer" clip-path="url(#clip0_726_708)">
<path id="Vector" d="M19.4091 21.1717C19.7225 21.1717 20.0231 21.0472 20.2447 20.8256C20.4664 20.604 20.5909 20.3034 20.5909 19.99V8.17331C20.5909 7.85991 20.4664 7.55935 20.2447 7.33774C20.0231 7.11614 19.7225 6.99164 19.4091 6.99164C19.0956 6.99164 18.795 7.11614 18.5734 7.33774C18.3517 7.55935 18.2272 7.85991 18.2272 8.17331V19.99C18.2272 20.3034 18.3517 20.604 18.5734 20.8256C18.795 21.0472 19.0956 21.1717 19.4091 21.1717ZM20.5909 5.80997H21.7727V6.99164C21.7727 7.30504 21.8972 7.6056 22.1188 7.82721C22.3405 8.04882 22.6411 8.17331 22.9545 8.17331C23.2679 8.17331 23.5685 8.04882 23.7902 7.82721C24.0118 7.6056 24.1363 7.30504 24.1363 6.99164V5.80997H25.3181C25.6316 5.80997 25.9322 5.68547 26.1538 5.46386C26.3754 5.24226 26.4999 4.94169 26.4999 4.6283C26.4999 4.3149 26.3754 4.01433 26.1538 3.79273C25.9322 3.57112 25.6316 3.44662 25.3181 3.44662H24.1363V2.26495C24.1363 1.95155 24.0118 1.65099 23.7902 1.42938C23.5685 1.20778 23.2679 1.08328 22.9545 1.08328C22.6411 1.08328 22.3405 1.20778 22.1188 1.42938C21.8972 1.65099 21.7727 1.95155 21.7727 2.26495V3.44662H20.5909C20.2774 3.44662 19.9768 3.57112 19.7552 3.79273C19.5336 4.01433 19.4091 4.3149 19.4091 4.6283C19.4091 4.94169 19.5336 5.24226 19.7552 5.46386C19.9768 5.68547 20.2774 5.80997 20.5909 5.80997ZM24.8454 10.5367C24.6933 10.5677 24.5488 10.6283 24.4201 10.7152C24.2915 10.8021 24.1812 10.9134 24.0956 11.0429C24.01 11.1724 23.9507 11.3175 23.9212 11.4699C23.8917 11.6222 23.8925 11.779 23.9236 11.931C24.385 14.1717 24.1115 16.5015 23.1437 18.5744C22.1759 20.6474 20.5654 22.3531 18.5512 23.4382C16.537 24.5234 14.2266 24.9303 11.9628 24.5984C9.69902 24.2665 7.60262 23.2136 5.98477 21.596C4.36693 19.9783 3.31389 17.8822 2.98198 15.6187C2.65006 13.3552 3.05696 11.045 4.14228 9.03105C5.2276 7.01711 6.93347 5.40678 9.00668 4.43909C11.0799 3.47141 13.4099 3.19795 15.6509 3.65932C15.9643 3.722 16.2898 3.65762 16.5558 3.48033C16.8217 3.30305 17.0064 3.02739 17.0691 2.71399C17.1317 2.40059 17.0674 2.07512 16.89 1.8092C16.7127 1.54327 16.437 1.35866 16.1236 1.29598C15.2587 1.13486 14.3795 1.06358 13.5 1.08328C10.9288 1.08328 8.41541 1.84562 6.27758 3.2739C4.13975 4.70219 2.47351 6.73226 1.48957 9.1074C0.505633 11.4825 0.24819 14.0961 0.749797 16.6175C1.2514 19.139 2.48953 21.4551 4.30761 23.2729C6.12569 25.0908 8.44206 26.3288 10.9638 26.8303C13.4856 27.3319 16.0994 27.0744 18.4748 26.0906C20.8503 25.1068 22.8806 23.4408 24.3091 21.3032C25.7375 19.1656 26.4999 16.6525 26.4999 14.0817C26.5025 13.2085 26.4153 12.3374 26.24 11.482C26.2116 11.3278 26.1529 11.1807 26.0672 11.0494C25.9815 10.9181 25.8705 10.8052 25.7407 10.7172C25.6109 10.6292 25.4649 10.568 25.3112 10.537C25.1575 10.506 24.9992 10.5059 24.8454 10.5367ZM11.1363 15.2633H12.3182C13.2585 15.2633 14.1603 14.8899 14.8252 14.225C15.4901 13.5602 15.8636 12.6585 15.8636 11.7183V10.5367C15.8636 9.59646 15.4901 8.69477 14.8252 8.02995C14.1603 7.36513 13.2585 6.99164 12.3182 6.99164H11.1363C10.196 6.99164 9.29424 7.36513 8.62934 8.02995C7.96444 8.69477 7.5909 9.59646 7.5909 10.5367C7.5909 10.8501 7.71541 11.1506 7.93704 11.3722C8.15868 11.5938 8.45928 11.7183 8.77271 11.7183C9.08615 11.7183 9.38675 11.5938 9.60838 11.3722C9.83002 11.1506 9.95453 10.8501 9.95453 10.5367C9.95453 10.2233 10.079 9.9227 10.3007 9.70109C10.5223 9.47948 10.8229 9.35499 11.1363 9.35499H12.3182C12.6316 9.35499 12.9322 9.47948 13.1538 9.70109C13.3755 9.9227 13.5 10.2233 13.5 10.5367V11.7183C13.5 12.0317 13.3755 12.3323 13.1538 12.5539C12.9322 12.7755 12.6316 12.9 12.3182 12.9H11.1363C10.196 12.9 9.29424 13.2735 8.62934 13.9383C7.96444 14.6031 7.5909 15.5048 7.5909 16.445V19.99C7.5909 20.3034 7.71541 20.604 7.93704 20.8256C8.15868 21.0472 8.45928 21.1717 8.77271 21.1717H14.6818C14.9952 21.1717 15.2958 21.0472 15.5175 20.8256C15.7391 20.604 15.8636 20.3034 15.8636 19.99C15.8636 19.6766 15.7391 19.3761 15.5175 19.1545C15.2958 18.9329 14.9952 18.8084 14.6818 18.8084H9.95453V16.445C9.95453 16.1316 10.079 15.8311 10.3007 15.6095C10.5223 15.3878 10.8229 15.2633 11.1363 15.2633Z" fill="#F5F5F5"/>
</g>
<defs>
<clipPath id="clip0_726_708">
<rect width="26" height="27.0833" fill="white" transform="translate(0.5)"/>
</clipPath>
</defs>
</svg>
